<svg width="24" height="24" viewBox="0 0 24 24" fill="none" xmlns="http://www.w3.org/2000/svg">
<g clip-path="url(#clip0_50_1454)">
<path d="M14.2998 5.70998C13.9098 6.09998 13.9098 6.72998 14.2998 7.11998L18.1698 11L2.99978 11C2.44979 11 1.99978 11.45 1.99978 12C1.99978 12.55 2.44979 13 2.99978 13L18.1698 13L14.2898 16.88C13.8998 17.27 13.8998 17.9 14.2898 18.29C14.6798 18.68 15.3098 18.68 15.6998 18.29L21.2998 12.7C21.6898 12.31 21.6898 11.68 21.2998 11.29L15.7098 5.70998C15.3198 5.31998 14.6798 5.31998 14.2998 5.70998Z" fill="#101F62"/>
</g>
<defs>
<clipPath id="clip0_50_1454">
<rect width="24" height="24" fill="white" transform="matrix(0 1 -1 0 24 0)"/>
</clipPath>
</defs>
</svg>
